<svg id="Layer_1" enable-background="new 0 0 512.001 512.001" height="512" viewBox="0 0 512.001 512.001" width="512" xmlns="http://www.w3.org/2000/svg"><g><path d="m412.716 153.131c-9.38 57.75-26.54 112.47-51.02 162.65-19.59 40.17-43.89 77.53-72.21 111.03-48.35 57.19-91.21 83.06-93.01 84.13-1.18.71-2.51 1.06-3.83 1.06-1.63 0-3.25-.53-4.6-1.57-2.43-1.89-3.47-5.07-2.6-8.03 34.33-117.61 25.54-202.93 21.89-227-41.49 5.52-91.53 2.74-93.76 2.61-3.48-.2-6.36-2.76-6.96-6.2-11.98-68.61-7.26-136.03-1.19-180.51 6.58-48.19 15.86-79.78 16.25-81.1.89-2.98 3.52-5.11 6.62-5.34.92-.08 90.38-6.72 214.84-4.35 4.07.08 8.18.17 12.32.27 2.44.06 4.69 1.3 6.05 3.32s1.65 4.58.78 6.85c-.23.62-22.77 60.59-26.15 131.87 12.39-.55 37.55-1.03 69.79 1.63 2.08.17 4 1.21 5.29 2.86 1.29 1.64 1.831 3.75 1.5 5.82z" fill="#8deaff"/><path d="m364.486 189.841c0 .73-.11 1.43-.3 2.1l-.04.16c-3.52 13.55-36.33 134.49-103.46 208.88-1.45 1.61-3.49 2.47-5.57 2.47-1 0-2.01-.2-2.97-.61-2.95-1.28-4.76-4.29-4.5-7.49 6.56-81.14-3.4-143.04-7.22-162.76-15.64 2.05-54.67 6.6-91.46 6.23-3.83-.04-7.02-2.95-7.4-6.77-7.86-80.12 5.75-156.51 11.96-185.64.7-3.3 3.53-5.73 6.9-5.92 22.4-1.29 82.58-2.58 132.92-2.56 4.37 0 8.67.01 12.85.04 2.34.01 4.53 1.12 5.94 2.98 1.41 1.87 1.87 4.28 1.24 6.53-.16.6-16.11 59.06-13.17 135.94 11.8-1.09 33.83-2.54 57.02-1.08 4.03.13 7.26 3.44 7.26 7.5z" fill="#6ccaea"/><g fill="#56a6e2"><circle cx="190.206" cy="79.735" r="7.5"/><circle cx="228.466" cy="78.735" r="7.5"/><circle cx="266.206" cy="78.735" r="7.5"/><ellipse cx="312.116" cy="224.677" rx="7.5" ry="7.5" transform="matrix(.383 -.924 .924 .383 -14.901 427.054)"/><circle cx="298.546" cy="260.088" r="7.5"/><circle cx="286.555" cy="296.538" r="7.5"/></g><path d="m412.716 153.131c-9.38 57.75-26.54 112.47-51.02 162.65-19.59 40.17-43.89 77.53-72.21 111.03-48.35 57.19-91.21 83.06-93.01 84.13 161.42-143.19 192.85-346.81 192.85-346.81-25.05-4.7-69.31-3.13-69.31-3.13-8.73-62.07 16.91-142.32 23.12-160.49 4.07.08 8.18.17 12.32.27 2.44.06 4.69 1.3 6.05 3.32s1.65 4.58.78 6.85c-.23.62-22.77 60.59-26.15 131.87 12.39-.55 37.55-1.03 69.79 1.63 2.08.17 4 1.21 5.29 2.86 1.29 1.64 1.831 3.75 1.5 5.82z" fill="#6ccaea"/><path d="m364.486 189.841c0 .73-.11 1.43-.3 2.1l-.04.16c-3.52 13.55-36.33 134.49-103.46 208.88 54.46-101.09 82.2-201.81 82.2-201.81-21.91-2.08-59.52 3-59.52 3-7.67-53.8 6.55-143.93 9.98-164.24 4.37 0 8.67.01 12.85.04 2.34.01 4.53 1.12 5.94 2.98 1.41 1.87 1.87 4.28 1.24 6.53-.16.6-16.11 59.06-13.17 135.94 11.8-1.09 33.83-2.54 57.02-1.08 4.03.13 7.26 3.44 7.26 7.5z" fill="#56a6e2"/></g></svg>